<svg xmlns="http://www.w3.org/2000/svg" xmlns:xlink="http://www.w3.org/1999/xlink" width="15" height="15" version="1.1" viewBox="0 0 15 15"><title>Fancy zones</title><desc>Created with Sketch.</desc><g id="Icons" fill="none" fill-rule="evenodd" stroke="none" stroke-width="1"><g id="X-Large-Copy-5" stroke="#000" transform="translate(-17.000000, -164.000000)"><g id="Group-4"><g id="Navigation-/-Left-Nav-/-Default-/-Level-2-w-Icon-/-Rest-Copy-3" transform="translate(0.000000, 152.000000)"><g id="Fancy-zones" transform="translate(17.000000, 12.000000)"><g id="Group-5"><rect id="Rectangle" width="14" height="14" x=".5" y=".5"/><path id="Line-4" d="M2.5,2 L2.5,7"/><path id="Line-4-Copy" d="M4.5,2 L4.5,7"/><path id="Line-4-Copy" d="M6.5,5 L6.5,10"/><path id="Line-4-Copy" d="M7.5,6 L7.5,9"/><path id="Line-4-Copy" d="M8.5,7 L8.5,8"/><path id="Line-4-Copy-2" d="M3.5,1 L3.5,4" transform="translate(3.500000, 2.500000) rotate(-270.000000) translate(-3.500000, -2.500000)"/><path id="Line-4" d="M2.5,8 L2.5,13"/><path id="Line-4-Copy-2" d="M3.5,7 L3.5,10" transform="translate(3.500000, 8.500000) rotate(-270.000000) translate(-3.500000, -8.500000)"/><path id="Line-4-Copy-2" d="M3.5,11 L3.5,14" transform="translate(3.500000, 12.500000) rotate(-270.000000) translate(-3.500000, -12.500000)"/><path id="Line-4" d="M10.5,8 L10.5,13"/><path id="Line-4" d="M12.5,9 L12.5,12"/><path id="Line-4-Copy-2" d="M11,7.5 L11,9.5" transform="translate(11.000000, 8.500000) rotate(-270.000000) translate(-11.000000, -8.500000)"/><path id="Line-4-Copy-2" d="M11,11.5 L11,13.5" transform="translate(11.000000, 12.500000) rotate(-270.000000) translate(-11.000000, -12.500000)"/><path id="Line-4-Copy-2" d="M3.5,3 L3.5,6" transform="translate(3.500000, 4.500000) rotate(-270.000000) translate(-3.500000, -4.500000)"/><path id="Line-4" d="M10.5,2 L10.5,7"/><path id="Line-4-Copy" d="M12.5,2 L12.5,7"/><path id="Line-4-Copy-2" d="M11.5,1 L11.5,4" transform="translate(11.500000, 2.500000) rotate(-270.000000) translate(-11.500000, -2.500000)"/><path id="Line-4-Copy-2" d="M11.5,3 L11.5,6" transform="translate(11.500000, 4.500000) rotate(-270.000000) translate(-11.500000, -4.500000)"/><path id="Line-4-Copy-2" d="M11.5,5 L11.5,8" transform="translate(11.500000, 6.500000) rotate(-270.000000) translate(-11.500000, -6.500000)"/></g></g></g></g></g></g></svg>